<svg width="32" height="32" viewBox="0 0 32 32" fill="none" xmlns="http://www.w3.org/2000/svg">
<path d="M24.333 14.75V16C24.333 19.928 24.333 21.892 23.113 23.113C21.893 24.333 19.928 24.333 16 24.333C12.072 24.333 10.107 24.333 8.88699 23.113C7.66699 21.893 7.66699 19.928 7.66699 16C7.66699 12.072 7.66699 10.107 8.88699 8.88699C10.107 7.66699 12.072 7.66699 16 7.66699H17.25" stroke="#1C274C" stroke-width="1.25" stroke-linecap="round"/>
<path d="M21.833 12.666C23.2137 12.666 24.333 11.5467 24.333 10.166C24.333 8.7853 23.2137 7.66602 21.833 7.66602C20.4523 7.66602 19.333 8.7853 19.333 10.166C19.333 11.5467 20.4523 12.666 21.833 12.666Z" stroke="#1C274C" stroke-width="1.25"/>
<path d="M11.833 17.667L13.744 15.757C13.8214 15.6795 13.9133 15.618 14.0144 15.5761C14.1156 15.5341 14.224 15.5125 14.3335 15.5125C14.443 15.5125 14.5514 15.5341 14.6526 15.5761C14.7537 15.618 14.8456 15.6795 14.923 15.757L16.244 17.077C16.3214 17.1545 16.4133 17.216 16.5144 17.2579C16.6156 17.2999 16.724 17.3215 16.8335 17.3215C16.943 17.3215 17.0514 17.2999 17.1526 17.2579C17.2538 17.216 17.3456 17.1545 17.423 17.077L20.167 14.333M20.167 14.333V16.417M20.167 14.333H18.083" stroke="#1C274C" stroke-width="1.25" stroke-linecap="round" stroke-linejoin="round"/>
</svg>
