<svg width="963" height="764" viewBox="0 0 963 764" fill="none" xmlns="http://www.w3.org/2000/svg">
<g clip-path="url(#clip0_2023_481)">
<path opacity="0.5" d="M100.13 134.291H46.275V186.663M100.13 134.291V186.663M100.13 134.291H153.985M46.275 186.663H100.13M46.275 186.663V239.035M100.13 186.663H153.985M100.13 186.663V239.035M153.985 134.291V186.663M153.985 134.291H207.84M153.985 186.663H207.84M153.985 186.663V239.035M100.13 239.035H46.275M100.13 239.035H153.985M100.13 239.035V291.407M46.275 239.035V291.407M207.84 134.291V186.663M207.84 134.291H261.695M207.84 186.663H261.695M207.84 186.663V239.035M153.985 239.035H207.84M153.985 239.035V291.407M261.695 134.291V186.663M261.695 134.291H315.55M261.695 186.663H315.55M261.695 186.663V239.035M207.84 239.035H261.695M207.84 239.035V291.407M315.55 134.291V186.663M315.55 134.291H369.406M315.55 186.663H369.406M315.55 186.663V239.035M261.695 239.035H315.55M261.695 239.035V291.407M369.406 134.291V186.663M369.406 134.291H423.261M369.406 186.663H423.261M369.406 186.663V239.035M315.55 239.035H369.406M315.55 239.035V291.407M423.261 134.291V186.663M423.261 134.291H477.116M423.261 186.663H477.116M423.261 186.663V239.035M369.406 239.035H423.261M369.406 239.035V291.407M477.116 134.291V186.663M477.116 134.291H530.971M477.116 186.663H530.971M477.116 186.663V239.035M423.261 239.035H477.116M423.261 239.035V291.407M530.971 134.291V186.663M530.971 134.291H584.826M530.971 186.663H584.826M530.971 186.663V239.035M477.116 239.035H530.971M477.116 239.035V291.407M584.826 134.291V186.663M584.826 134.291H638.681M584.826 186.663H638.681M584.826 186.663V239.035M530.971 239.035H584.826M530.971 239.035V291.407M638.681 134.291V186.663M638.681 134.291H692.537M638.681 186.663H692.537M638.681 186.663V239.035M584.826 239.035H638.681M584.826 239.035V291.407M692.537 134.291V186.663M692.537 134.291H746.392M692.537 186.663H746.392M692.537 186.663V239.035M638.681 239.035H692.537M638.681 239.035V291.407M746.392 134.291V186.663M746.392 134.291H800.247M746.392 186.663H800.247M746.392 186.663V239.035M692.537 239.035H746.392M692.537 239.035V291.407M800.247 134.291V186.663M800.247 134.291H854.102M800.247 186.663H854.102M800.247 186.663V239.035M746.392 239.035H800.247M746.392 239.035V291.407M854.102 134.291V186.663M854.102 134.291H907.957M854.102 186.663H907.957M854.102 186.663V239.035M800.247 239.035H854.102M800.247 239.035V291.407M907.957 134.291V186.663M907.957 134.291H961.812V186.663M907.957 186.663H961.812M907.957 186.663V239.035M854.102 239.035H907.957M854.102 239.035V291.407M961.812 186.663V239.035M907.957 239.035H961.812M907.957 239.035V291.407M961.812 239.035V291.407M100.13 291.407H46.275M100.13 291.407H153.985M100.13 291.407V343.779M46.275 291.407V343.779M153.985 291.407H207.84M153.985 291.407V343.779M207.84 291.407H261.695M207.84 291.407V343.779M261.695 291.407H315.55M261.695 291.407V343.779M315.55 291.407H369.406M315.55 291.407V343.779M369.406 291.407H423.261M369.406 291.407V343.779M423.261 291.407H477.116M423.261 291.407V343.779M477.116 291.407H530.971M477.116 291.407V343.779M530.971 291.407H584.826M530.971 291.407V343.779M584.826 291.407H638.681M584.826 291.407V343.779M638.681 291.407H692.537M638.681 291.407V343.779M692.537 291.407H746.392M692.537 291.407V343.779M746.392 291.407H800.247M746.392 291.407V343.779M800.247 291.407H854.102M800.247 291.407V343.779M854.102 291.407H907.957M854.102 291.407V343.779M907.957 291.407H961.812M907.957 291.407V343.779M961.812 291.407V343.779M100.13 343.779H46.275M100.13 343.779H153.985M100.13 343.779V396.151M46.275 343.779V396.151M153.985 343.779H207.84M153.985 343.779V396.151M207.84 343.779H261.695M207.84 343.779V396.151M261.695 343.779H315.55M261.695 343.779V396.151M315.55 343.779H369.406M315.55 343.779V396.151M369.406 343.779H423.261M369.406 343.779V396.151M423.261 343.779H477.116M423.261 343.779V396.151M477.116 343.779H530.971M477.116 343.779V396.151M530.971 343.779H584.826M530.971 343.779V396.151M584.826 343.779H638.681M584.826 343.779V396.151M638.681 343.779H692.537M638.681 343.779V396.151M692.537 343.779H746.392M692.537 343.779V396.151M746.392 343.779H800.247M746.392 343.779V396.151M800.247 343.779H854.102M800.247 343.779V396.151M854.102 343.779H907.957M854.102 343.779V396.151M907.957 343.779H961.812M907.957 343.779V396.151M961.812 343.779V396.151M100.13 396.151H46.275M100.13 396.151H153.985M100.13 396.151V448.523M46.275 396.151V448.523M153.985 396.151H207.84M153.985 396.151V448.523M207.84 396.151H261.695M207.84 396.151V448.523M261.695 396.151H315.55M261.695 396.151V448.523M315.55 396.151H369.406M315.55 396.151V448.523M369.406 396.151H423.261M369.406 396.151V448.523M423.261 396.151H477.116M423.261 396.151V448.523M477.116 396.151H530.971M477.116 396.151V448.523M530.971 396.151H584.826M530.971 396.151V448.523M584.826 396.151H638.681M584.826 396.151V448.523M638.681 396.151H692.537M638.681 396.151V448.523M692.537 396.151H746.392M692.537 396.151V448.523M746.392 396.151H800.247M746.392 396.151V448.523M800.247 396.151H854.102M800.247 396.151V448.523M854.102 396.151H907.957M854.102 396.151V448.523M907.957 396.151H961.812M907.957 396.151V448.523M961.812 396.151V448.523M100.13 448.523H46.275M100.13 448.523H153.985M100.13 448.523V500.894M46.275 448.523V500.894M153.985 448.523H207.84M153.985 448.523V500.894M207.84 448.523H261.695M207.84 448.523V500.894M261.695 448.523H315.55M261.695 448.523V500.894M315.55 448.523H369.406M315.55 448.523V500.894M369.406 448.523H423.261M369.406 448.523V500.894M423.261 448.523H477.116M423.261 448.523V500.894M477.116 448.523H530.971M477.116 448.523V500.894M530.971 448.523H584.826M530.971 448.523V500.894M584.826 448.523H638.681M584.826 448.523V500.894M638.681 448.523H692.537M638.681 448.523V500.894M692.537 448.523H746.392M692.537 448.523V500.894M746.392 448.523H800.247M746.392 448.523V500.894M800.247 448.523H854.102M800.247 448.523V500.894M854.102 448.523H907.957M854.102 448.523V500.894M907.957 448.523H961.812M907.957 448.523V500.894M961.812 448.523V500.894M100.13 500.894H46.275M100.13 500.894H153.985M100.13 500.894V553.266M46.275 500.894V553.266M153.985 500.894H207.84M153.985 500.894V553.266M207.84 500.894H261.695M207.84 500.894V553.266M261.695 500.894H315.55M261.695 500.894V553.266M315.55 500.894H369.406M315.55 500.894V553.266M369.406 500.894H423.261M369.406 500.894V553.266M423.261 500.894H477.116M423.261 500.894V553.266M477.116 500.894H530.971M477.116 500.894V553.266M530.971 500.894H584.826M530.971 500.894V553.266M584.826 500.894H638.681M584.826 500.894V553.266M638.681 500.894H692.537M638.681 500.894V553.266M692.537 500.894H746.392M692.537 500.894V553.266M746.392 500.894H800.247M746.392 500.894V553.266M800.247 500.894H854.102M800.247 500.894V553.266M854.102 500.894H907.957M854.102 500.894V553.266M907.957 500.894H961.812M907.957 500.894V553.266M961.812 500.894V553.266M100.13 553.266H46.275M100.13 553.266H153.985M100.13 553.266V605.638M46.275 553.266V605.638M153.985 553.266H207.84M153.985 553.266V605.638M207.84 553.266H261.695M207.84 553.266V605.638M261.695 553.266H315.55M261.695 553.266V605.638M315.55 553.266H369.406M315.55 553.266V605.638M369.406 553.266H423.261M369.406 553.266V605.638M423.261 553.266H477.116M423.261 553.266V605.638M477.116 553.266H530.971M477.116 553.266V605.638M530.971 553.266H584.826M530.971 553.266V605.638M584.826 553.266H638.681M584.826 553.266V605.638M638.681 553.266H692.537M638.681 553.266V605.638M692.537 553.266H746.392M692.537 553.266V605.638M746.392 553.266H800.247M746.392 553.266V605.638M800.247 553.266H854.102M800.247 553.266V605.638M854.102 553.266H907.957M854.102 553.266V605.638M907.957 553.266H961.812M907.957 553.266V605.638M961.812 553.266V605.638M100.13 605.638H46.275M100.13 605.638H153.985M100.13 605.638V658.01M46.275 605.638V658.01M153.985 605.638H207.84M153.985 605.638V658.01M207.84 605.638H261.695M207.84 605.638V658.01M261.695 605.638H315.55M261.695 605.638V658.01M315.55 605.638H369.406M315.55 605.638V658.01M369.406 605.638H423.261M369.406 605.638V658.01M423.261 605.638H477.116M423.261 605.638V658.01M477.116 605.638H530.971M477.116 605.638V658.01M530.971 605.638H584.826M530.971 605.638V658.01M584.826 605.638H638.681M584.826 605.638V658.01M638.681 605.638H692.537M638.681 605.638V658.01M692.537 605.638H746.392M692.537 605.638V658.01M746.392 605.638H800.247M746.392 605.638V658.01M800.247 605.638H854.102M800.247 605.638V658.01M854.102 605.638H907.957M854.102 605.638V658.01M907.957 605.638H961.812M907.957 605.638V658.01M961.812 605.638V658.01M100.13 658.01H46.275M100.13 658.01H153.985M100.13 658.01V710.382M46.275 658.01V710.382M153.985 658.01H207.84M153.985 658.01V710.382M207.84 658.01H261.695M207.84 658.01V710.382M261.695 658.01H315.55M261.695 658.01V710.382M315.55 658.01H369.406M315.55 658.01V710.382M369.406 658.01H423.261M369.406 658.01V710.382M423.261 658.01H477.116M423.261 658.01V710.382M477.116 658.01H530.971M477.116 658.01V710.382M530.971 658.01H584.826M530.971 658.01V710.382M584.826 658.01H638.681M584.826 658.01V710.382M638.681 658.01H692.537M638.681 658.01V710.382M692.537 658.01H746.392M692.537 658.01V710.382M746.392 658.01H800.247M746.392 658.01V710.382M800.247 658.01H854.102M800.247 658.01V710.382M854.102 658.01H907.957M854.102 658.01V710.382M907.957 658.01H961.812M907.957 658.01V710.382M961.812 658.01V710.382M100.13 710.382H46.275M100.13 710.382H153.985M100.13 710.382V762.754M46.275 710.382V762.754H100.13M153.985 710.382H207.84M153.985 710.382V762.754M207.84 710.382H261.695M207.84 710.382V762.754M261.695 710.382H315.55M261.695 710.382V762.754M315.55 710.382H369.406M315.55 710.382V762.754M369.406 710.382H423.261M369.406 710.382V762.754M423.261 710.382H477.116M423.261 710.382V762.754M477.116 710.382H530.971M477.116 710.382V762.754M530.971 710.382H584.826M530.971 710.382V762.754M584.826 710.382H638.681M584.826 710.382V762.754M638.681 710.382H692.537M638.681 710.382V762.754M692.537 710.382H746.392M692.537 710.382V762.754M746.392 710.382H800.247M746.392 710.382V762.754M800.247 710.382H854.102M800.247 710.382V762.754M854.102 710.382H907.957M854.102 710.382V762.754M907.957 710.382H961.812M907.957 710.382V762.754M961.812 710.382V762.754H907.957M100.13 762.754H153.985M153.985 762.754H207.84M207.84 762.754H261.695M261.695 762.754H315.55M315.55 762.754H369.406M369.406 762.754H423.261M423.261 762.754H477.116M477.116 762.754H530.971M530.971 762.754H584.826M584.826 762.754H638.681M638.681 762.754H692.537M692.537 762.754H746.392M746.392 762.754H800.247M800.247 762.754H854.102M854.102 762.754H907.957" stroke="url(#paint0_radial_2023_481)" stroke-opacity="0.2" stroke-width="1.293"/>
<g filter="url(#filter0_f_2023_481)">
<path fill-rule="evenodd" clip-rule="evenodd" d="M467.247 388.91C594.654 524.11 723.659 609.473 755.388 579.572C787.118 549.672 709.555 415.832 582.148 280.631C454.741 145.431 325.736 60.0679 294.007 89.9689C262.278 119.869 339.84 253.709 467.247 388.91ZM274.422 427.811C359.953 518.573 453.221 569.597 482.743 541.777C512.265 513.957 466.861 417.827 381.331 327.065C295.801 236.303 202.532 185.278 173.01 213.098C143.488 240.919 188.892 337.048 274.422 427.811Z" fill="#2222DD"/>
</g>
<g filter="url(#filter1_f_2023_481)">
<path fill-rule="evenodd" clip-rule="evenodd" d="M502.013 406.63C572.684 473.721 637.258 512.317 655.082 495.52C675.917 475.886 624.985 387.999 541.323 299.22C457.661 210.44 372.95 154.387 352.115 174.021C341.853 183.691 349 209.918 368.893 244.653C335.215 227.491 304.808 224.582 288.318 240.121C260.286 266.537 283.091 336.266 339.254 395.865C395.418 455.465 463.672 482.365 491.704 455.948C502.962 445.34 506.02 427.747 502.013 406.63Z" fill="#DFFFDE" fill-opacity="0.3"/>
</g>
<g filter="url(#filter2_f_2023_481)">
<path fill-rule="evenodd" clip-rule="evenodd" d="M438.49 340.054C489.27 388.261 535.667 415.993 548.474 403.924C563.445 389.817 526.849 326.668 466.736 262.877C406.622 199.086 345.754 158.81 330.783 172.918C323.41 179.866 328.546 198.711 342.839 223.669C318.641 211.338 296.792 209.247 284.944 220.412C264.802 239.393 281.188 289.496 321.543 332.32C361.898 375.143 410.941 394.472 431.083 375.491C439.172 367.869 441.369 355.227 438.49 340.054Z" fill="#DFFFDE" fill-opacity="0.6"/>
</g>
</g>
<defs>
<filter id="filter0_f_2023_481" x="-0.000366211" y="-79.9999" width="926.491" height="829.541" filterUnits="userSpaceOnUse" color-interpolation-filters="sRGB">
<feFlood flood-opacity="0" result="BackgroundImageFix"/>
<feBlend mode="normal" in="SourceGraphic" in2="BackgroundImageFix" result="shape"/>
<feGaussianBlur stdDeviation="82" result="effect1_foregroundBlur_2023_481"/>
</filter>
<filter id="filter1_f_2023_481" x="188.64" y="82.4118" width="558.796" height="504.718" filterUnits="userSpaceOnUse" color-interpolation-filters="sRGB">
<feFlood flood-opacity="0" result="BackgroundImageFix"/>
<feBlend mode="normal" in="SourceGraphic" in2="BackgroundImageFix" result="shape"/>
<feGaussianBlur stdDeviation="43.845" result="effect1_foregroundBlur_2023_481"/>
</filter>
<filter id="filter2_f_2023_481" x="213.322" y="107.094" width="401.511" height="362.654" filterUnits="userSpaceOnUse" color-interpolation-filters="sRGB">
<feFlood flood-opacity="0" result="BackgroundImageFix"/>
<feBlend mode="normal" in="SourceGraphic" in2="BackgroundImageFix" result="shape"/>
<feGaussianBlur stdDeviation="31.504" result="effect1_foregroundBlur_2023_481"/>
</filter>
<radialGradient id="paint0_radial_2023_481" cx="0" cy="0" r="1" gradientUnits="userSpaceOnUse" gradientTransform="translate(504.044 465.308) rotate(90) scale(175.244 239.111)">
<stop stop-color="white"/>
<stop offset="0.807" stop-color="white" stop-opacity="0"/>
</radialGradient>
<clipPath id="clip0_2023_481">
<rect width="963" height="764" fill="white"/>
</clipPath>
</defs>
</svg>
