<svg width="109" height="111" viewBox="0 0 109 111" fill="none" xmlns="http://www.w3.org/2000/svg">
<path d="M3.6037 40.0855C10.3952 51.0439 10.2315 61.948 3.54698 75.7966C-0.0716236 83.0081 0.127223 83.5681 13.9397 97.9627C27.5606 112.173 28.3194 112.534 32.3723 108.322C41.5833 98.7473 60.5627 98.5707 78.2145 107.441C82.0087 109.248 84.9781 107.311 96.5841 95.2475C109.48 81.8435 110.209 80.7018 106.378 77.0164C96.9932 67.9873 96.6056 48.0723 105.479 30.7986C107.1 27.1965 105.163 24.2265 93.0963 12.6176C79.4973 -0.465404 78.547 -1.01099 74.6783 3.01021C65.4673 12.5845 50.2528 13.0647 31.2968 4.78326C24.6589 1.71566 23.9147 2.10586 10.835 15.7014L3.74176 23.0743C-0.0101911 26.9742 -0.687565 32.9029 2.08803 37.5486L3.6037 40.0855ZM50.9737 21.1326C62.239 20.5403 65.6428 21.6026 75.5733 29.6816C86.27 38.4976 87.0508 39.9861 87.8594 52.5631C88.6461 64.0128 87.4005 67.6077 80.4293 76.3872C70.5179 88.6062 61.9341 91.7782 47.4126 89.238C19.5043 84.5115 9.65098 51.4341 29.9153 30.3706C36.3631 23.6686 40.2756 21.9019 50.9737 21.1326Z" fill="white"/>
</svg>
