<svg width="56" height="58" viewBox="0 0 56 58" fill="none" xmlns="http://www.w3.org/2000/svg">
<path d="M1.83743 20.6447C5.34473 26.3039 5.26021 31.9351 1.80814 39.0869C-0.0606032 42.8111 0.0420867 43.1003 7.1752 50.534C14.2094 57.8726 14.6013 58.0592 16.6943 55.8836C21.4511 50.9392 31.2525 50.848 40.3684 55.4289C42.3278 56.3619 43.8613 55.3618 49.8549 49.1318C56.5145 42.2096 56.8913 41.62 54.913 39.7168C50.0662 35.0539 49.866 24.7693 54.4484 15.8488C55.2858 13.9885 54.2853 12.4548 48.0537 6.45962C41.0309 -0.296805 40.5401 -0.578562 38.5422 1.49809C33.7854 6.44251 25.9282 6.6905 16.1389 2.41374C12.7109 0.829553 12.3266 1.03106 5.57185 8.05214L2.9668 10.7599C0.404508 13.4233 -0.058082 17.4721 1.83743 20.6447ZM26.3005 10.857C32.1182 10.5511 33.876 11.0997 39.0044 15.2719C44.5285 19.8247 44.9317 20.5934 45.3493 27.0885C45.7556 33.0014 45.1123 34.8579 41.5122 39.3919C36.3937 45.7021 31.9607 47.3402 24.4615 46.0283C10.0489 43.5875 4.9604 26.5055 15.4254 15.6277C18.7552 12.1666 20.7758 11.2543 26.3005 10.857Z" fill="#0900FF"/>
</svg>
